<svg preserveAspectRatio="none" width="100%" height="100%" overflow="visible" style="display: block;" viewBox="0 0 1000 1000" fill="none" xmlns="http://www.w3.org/2000/svg">
<g id="Github">
<path id="Vector" fill-rule="evenodd" clip-rule="evenodd" d="M500 0C223.75 0 0 223.75 0 500C0 721.25 143.125 908.125 341.875 974.375C366.875 978.75 376.25 963.75 376.25 950.625C376.25 938.75 375.625 899.375 375.625 857.5C250 880.625 217.5 826.875 207.5 798.75C201.875 784.375 177.5 740 156.25 728.125C138.75 718.75 113.75 695.625 155.625 695C195 694.375 223.125 731.25 232.5 746.25C277.5 821.875 349.375 800.625 378.125 787.5C382.5 755 395.625 733.125 410 720.625C298.75 708.125 182.5 665 182.5 473.75C182.5 419.375 201.875 374.375 233.75 339.375C228.75 326.875 211.25 275.625 238.75 206.875C238.75 206.875 280.625 193.75 376.25 258.125C416.25 246.875 458.75 241.25 501.25 241.25C543.75 241.25 586.25 246.875 626.25 258.125C721.875 193.125 763.75 206.875 763.75 206.875C791.25 275.625 773.75 326.875 768.75 339.375C800.625 374.375 820 418.75 820 473.75C820 665.625 703.125 708.125 591.875 720.625C610 736.25 625.625 766.25 625.625 813.125C625.625 880 625 933.75 625 950.625C625 963.75 634.375 979.375 659.375 974.375C856.875 908.125 1000 720.625 1000 500C1000 223.75 776.25 0 500 0Z" fill="var(--fill-0, #1B1F23)"/>
</g>
</svg>
