<svg preserveAspectRatio="none" width="100%" height="100%" overflow="visible" style="display: block;" viewBox="0 0 667 1000" fill="none" xmlns="http://www.w3.org/2000/svg">
<g id="Figma" clip-path="url(#clip0_0_8)">
<path id="path0_fill" d="M166.783 1000C258.811 1000 333.5 925.333 333.5 833.333V666.667H166.783C74.7558 666.667 0.0666994 741.333 0.0666994 833.333C0.0666994 925.333 74.7558 1000 166.783 1000Z" fill="var(--fill-0, #0ACF83)"/>
<path id="path1_fill" d="M0.0666994 500C0.0666994 408 74.7558 333.333 166.783 333.333H333.5V666.667H166.783C74.7558 666.667 0.0666994 592 0.0666994 500Z" fill="var(--fill-0, #A259FF)"/>
<path id="path1_fill_1_" d="M0.0666994 166.667C0.0666994 74.6667 74.7558 1.90735e-05 166.783 1.90735e-05H333.5V333.333H166.783C74.7558 333.333 0.0666994 258.667 0.0666994 166.667Z" fill="var(--fill-0, #F24E1E)"/>
<path id="path2_fill" d="M333.5 1.90735e-05H500.217C592.244 1.90735e-05 666.933 74.6667 666.933 166.667C666.933 258.667 592.244 333.333 500.217 333.333H333.5V1.90735e-05Z" fill="var(--fill-0, #FF7262)"/>
<path id="path3_fill" d="M666.933 500C666.933 592 592.244 666.667 500.217 666.667C408.189 666.667 333.5 592 333.5 500C333.5 408 408.189 333.333 500.217 333.333C592.244 333.333 666.933 408 666.933 500Z" fill="var(--fill-0, #1ABCFE)"/>
</g>
<defs>
<clipPath id="clip0_0_8">
<rect width="667" height="1000" fill="white"/>
</clipPath>
</defs>
</svg>
